<?xml version="1.0" standalone="no"?>
<!DOCTYPE svg PUBLIC "-//W3C//DTD SVG 1.1//EN" "http://www.w3.org/Graphics/SVG/1.1/DTD/svg11.dtd">
<svg version="1.1" xmlns="http://www.w3.org/2000/svg" viewBox="0 0 282 213" width="282" height="213"><!-- svg-source:excalidraw --><metadata></metadata><defs><style class="style-fonts">
      </style></defs><g transform="translate(10 10) rotate(0 131 96.5)" stroke="none"><path fill="#e03131" d="M 5.16,-4.26 Q 5.16,-4.26 14.50,7.36 23.83,18.98 35.68,31.87 47.53,44.76 61.91,57.92 76.28,71.09 92.97,84.73 109.65,98.37 129.61,113.06 149.56,127.75 168.55,139.68 187.54,151.61 204.40,160.37 221.26,169.12 232.94,174.26 244.63,179.40 250.42,181.53 256.21,183.66 260.53,185.11 264.86,186.55 265.81,187.18 266.77,187.80 267.47,188.70 268.18,189.60 268.56,190.68 268.94,191.75 268.95,192.89 268.97,194.03 268.62,195.12 268.27,196.21 267.60,197.12 266.92,198.04 265.99,198.70 265.05,199.35 263.96,199.67 262.86,199.99 261.72,199.95 260.58,199.90 259.52,199.50 258.45,199.09 257.57,198.36 256.69,197.64 256.09,196.67 255.48,195.70 255.22,194.59 254.96,193.48 255.07,192.34 255.17,191.21 255.64,190.17 256.10,189.12 256.87,188.28 257.65,187.44 258.65,186.90 259.65,186.35 260.77,186.15 261.89,185.94 263.02,186.11 264.15,186.28 265.16,186.80 266.18,187.32 266.98,188.14 267.77,188.95 268.27,189.98 268.76,191.01 268.90,192.14 269.04,193.27 268.81,194.39 268.58,195.51 268.01,196.49 267.44,197.48 266.58,198.23 265.72,198.98 264.67,199.42 263.61,199.86 262.47,199.94 261.34,200.02 260.23,199.73 259.13,199.44 259.13,199.44 259.13,199.44 255.16,197.19 251.19,194.95 245.76,192.09 240.32,189.23 228.30,183.98 216.28,178.73 199.01,169.80 181.74,160.88 162.37,148.79 143.00,136.70 122.76,121.93 102.52,107.16 85.50,93.43 68.48,79.70 53.61,66.34 38.74,52.98 26.42,39.99 14.11,27.01 4.47,15.63 -5.16,4.26 -5.60,3.58 -6.03,2.90 -6.29,2.13 -6.55,1.37 -6.62,0.56 -6.69,-0.23 -6.57,-1.03 -6.44,-1.83 -6.13,-2.57 -5.81,-3.32 -5.33,-3.96 -4.85,-4.61 -4.23,-5.13 -3.60,-5.64 -2.88,-5.99 -2.15,-6.34 -1.36,-6.51 -0.57,-6.67 0.23,-6.64 1.04,-6.61 1.81,-6.39 2.59,-6.17 3.29,-5.77 3.99,-5.37 4.58,-4.81 5.16,-4.26 5.16,-4.26 L 5.16,-4.26 Z"></path></g><g transform="translate(61 195) rotate(0 63 -73.5)" stroke="none"><path fill="#e03131" d="M -7.06,-2.71 Q -7.06,-2.71 -2.45,-13.82 2.14,-24.92 8.69,-36.33 15.24,-47.75 24.74,-61.79 34.23,-75.83 45.03,-89.08 55.83,-102.34 68.20,-113.10 80.56,-123.85 90.57,-130.48 100.58,-137.11 107.01,-141.21 113.43,-145.32 118.16,-149.34 122.89,-153.37 124.01,-153.86 125.14,-154.35 126.36,-154.45 127.58,-154.55 128.77,-154.26 129.96,-153.97 131.00,-153.31 132.04,-152.66 132.81,-151.70 133.58,-150.75 134.01,-149.60 134.44,-148.45 134.47,-147.23 134.51,-146.00 134.16,-144.83 133.80,-143.65 133.09,-142.65 132.38,-141.65 131.38,-140.93 130.39,-140.21 129.22,-139.85 128.05,-139.49 126.82,-139.51 125.59,-139.54 124.44,-139.96 123.29,-140.38 122.33,-141.15 121.37,-141.91 120.71,-142.94 120.04,-143.97 119.74,-145.16 119.44,-146.35 119.54,-147.57 119.63,-148.80 120.11,-149.93 120.59,-151.06 121.41,-151.97 122.22,-152.89 123.29,-153.50 124.35,-154.10 125.56,-154.34 126.76,-154.57 127.98,-154.41 129.19,-154.25 130.30,-153.71 131.40,-153.17 132.27,-152.30 133.14,-151.44 133.69,-150.34 134.24,-149.25 134.41,-148.03 134.58,-146.82 134.35,-145.61 134.12,-144.41 133.52,-143.34 132.92,-142.27 132.01,-141.44 131.10,-140.62 131.10,-140.62 131.10,-140.62 125.35,-137.89 119.60,-135.16 113.20,-131.48 106.79,-127.79 97.44,-121.51 88.09,-115.23 76.55,-105.07 65.02,-94.92 54.75,-81.97 44.48,-69.03 35.53,-55.24 26.58,-41.46 20.84,-30.69 15.10,-19.92 11.08,-8.60 7.06,2.71 6.63,3.52 6.20,4.32 5.59,5.00 4.98,5.68 4.23,6.20 3.48,6.71 2.62,7.03 1.77,7.35 0.86,7.45 -0.03,7.56 -0.94,7.45 -1.84,7.33 -2.69,7.00 -3.54,6.68 -4.29,6.15 -5.04,5.63 -5.64,4.95 -6.24,4.26 -6.66,3.45 -7.08,2.64 -7.29,1.76 -7.51,0.87 -7.50,-0.03 -7.50,-0.94 -7.28,-1.83 -7.06,-2.71 -7.06,-2.71 L -7.06,-2.71 Z"></path></g></svg>