<?xml version="1.0" standalone="no"?>
<!DOCTYPE svg PUBLIC "-//W3C//DTD SVG 20010904//EN"
 "http://www.w3.org/TR/2001/REC-SVG-20010904/DTD/svg10.dtd">
<svg version="1.0" xmlns="http://www.w3.org/2000/svg"
 width="409.000000pt" height="817.000000pt" viewBox="0 0 409.000000 817.000000"
 preserveAspectRatio="xMidYMid meet">

<g transform="translate(0.000000,817.000000) scale(0.100000,-0.100000)"
fill="#000000" stroke="none">
<path d="M1730 7258 c-58 -3 -123 -10 -145 -16 -67 -15 -129 -33 -145 -42 -9
-4 -31 -11 -50 -15 -31 -7 -69 -22 -180 -72 -76 -35 -270 -171 -325 -228 -79
-83 -217 -281 -274 -393 -68 -133 -89 -212 -112 -417 -23 -206 9 -521 62 -627
5 -10 9 -22 9 -27 0 -23 68 -154 125 -241 107 -162 214 -270 393 -398 72 -51
226 -132 252 -132 9 0 20 -3 24 -7 4 -4 31 -15 59 -24 31 -10 53 -23 55 -32 2
-9 -21 -54 -51 -99 -112 -169 -217 -367 -254 -477 -8 -26 -21 -59 -29 -76 -23
-53 -55 -138 -76 -205 -11 -36 -24 -74 -28 -85 -5 -11 -13 -40 -20 -65 -6 -25
-22 -88 -36 -140 -14 -52 -32 -125 -40 -162 -58 -276 -66 -326 -96 -538 -14
-105 -18 -532 -5 -593 9 -41 41 -77 69 -77 29 0 58 36 58 72 0 17 -5 57 -12
88 -7 34 -8 65 -3 76 8 17 9 16 13 -8 4 -30 44 -68 73 -68 10 0 26 11 34 24
18 26 10 78 -24 171 -11 28 -22 73 -26 100 -4 28 -12 56 -18 63 -15 19 -15
316 0 367 6 22 21 90 33 150 22 113 44 213 60 275 5 19 16 60 23 90 7 30 16
62 20 70 3 8 15 51 25 95 39 163 225 591 262 603 9 3 11 -2 6 -19 -3 -13 -11
-87 -16 -164 -6 -77 -14 -185 -20 -240 -5 -55 -10 -169 -11 -253 -1 -84 -5
-155 -10 -158 -5 -3 -9 -207 -10 -457 0 -249 -5 -504 -10 -567 -20 -258 -22
-694 -4 -1005 9 -165 21 -310 26 -323 13 -34 11 -82 -3 -83 -78 -4 -317 -37
-348 -48 -14 -5 -52 -15 -85 -22 -68 -15 -95 -37 -95 -77 0 -53 27 -65 127
-58 48 3 117 10 153 16 36 5 117 17 180 25 63 9 131 18 151 21 51 8 63 35 55
121 -6 72 -20 267 -33 468 -4 66 -8 257 -8 425 0 276 4 396 24 705 l6 100 434
3 c326 2 437 -1 442 -10 4 -6 10 -59 14 -117 3 -58 10 -126 15 -151 5 -25 16
-128 25 -230 35 -425 43 -611 44 -948 1 -386 -15 -353 191 -387 47 -8 108 -18
135 -24 28 -5 79 -14 115 -21 36 -6 81 -16 100 -22 55 -15 100 -7 122 23 19
25 19 28 4 57 -21 41 -73 65 -186 88 -14 3 -34 10 -45 15 -27 12 -101 28 -205
43 -47 6 -90 15 -95 18 -7 4 -12 120 -14 334 -1 181 -6 335 -11 344 -4 8 -10
80 -13 160 -6 149 -31 472 -42 525 -9 45 -25 330 -35 605 -8 222 -20 377 -51
649 -6 51 -8 96 -5 99 7 6 86 -17 100 -30 6 -4 18 -8 27 -8 17 0 48 -9 184
-51 100 -31 359 -78 428 -79 76 0 101 75 54 162 -55 100 -98 166 -139 209 -24
25 -88 94 -143 154 -119 128 -158 166 -301 290 -154 133 -262 217 -315 245
-39 21 -40 33 -6 48 171 77 395 222 496 323 127 127 264 366 316 554 9 33 22
78 28 100 16 55 16 505 0 560 -77 263 -126 367 -249 540 -114 158 -136 180
-291 291 -162 115 -266 166 -448 218 -132 37 -260 47 -455 34z m355 -138 c203
-60 280 -91 406 -161 42 -24 162 -121 215 -173 47 -47 140 -169 173 -225 156
-275 208 -499 183 -800 -6 -76 -15 -149 -20 -162 -5 -13 -17 -49 -27 -79 -50
-160 -147 -326 -261 -449 -59 -64 -162 -151 -178 -151 -3 0 -36 -21 -73 -46
-77 -52 -193 -110 -310 -153 -198 -73 -455 -75 -668 -6 -93 31 -89 29 -225 94
-99 48 -133 70 -240 159 -62 51 -192 191 -210 227 -8 17 -30 50 -49 75 -43 58
-89 156 -137 295 -37 109 -37 112 -41 300 -5 221 6 302 65 476 96 281 322 533
599 667 43 20 105 46 138 56 33 10 78 24 100 31 22 7 65 18 95 24 30 6 64 13
75 15 39 9 350 -2 390 -14z m89 -2558 c4 -10 11 -65 16 -123 5 -57 14 -126 19
-154 33 -171 65 -384 60 -389 -9 -8 -230 40 -349 75 -19 6 -58 16 -87 23 -28
6 -55 15 -59 19 -4 4 -31 7 -60 7 -45 0 -54 -3 -69 -27 -13 -20 -15 -33 -9
-52 8 -21 20 -28 69 -40 33 -7 69 -17 80 -21 53 -18 125 -39 178 -51 47 -10
56 -15 51 -28 -13 -29 -16 -113 -5 -124 6 -6 11 -18 11 -27 1 -26 36 -59 87
-81 44 -19 53 -19 106 -8 32 6 69 21 83 31 l24 19 0 -35 c0 -19 4 -37 9 -40 4
-3 11 -49 14 -103 4 -54 11 -143 16 -198 6 -55 10 -179 11 -276 l0 -176 -307
-5 c-170 -4 -364 -3 -433 0 l-125 7 -3 210 c-4 226 13 758 29 945 19 208 54
514 66 574 l8 39 195 -2 c140 -1 213 3 260 13 89 20 108 19 114 -2z m223 -168
c38 -26 95 -70 127 -98 118 -102 421 -412 502 -514 78 -99 94 -132 55 -117 -9
4 -36 11 -61 15 -56 11 -148 33 -220 54 -30 8 -66 18 -80 22 -14 3 -34 9 -45
14 -11 5 -38 13 -60 18 -22 6 -75 21 -117 33 -75 23 -77 24 -87 64 -6 22 -16
72 -22 110 -12 80 -36 226 -49 300 -17 93 -23 145 -16 145 3 0 36 -21 73 -46z"/>
<path d="M1785 6633 c-22 -2 -49 -8 -60 -13 -11 -5 -36 -13 -55 -19 -20 -6
-59 -31 -87 -56 -64 -56 -115 -142 -175 -295 -9 -23 -12 -18 -36 55 -36 106
-70 162 -136 222 -55 51 -89 65 -156 65 -145 0 -280 -117 -352 -304 -28 -74
-30 -287 -3 -368 77 -232 268 -341 441 -254 90 46 129 98 219 298 l13 29 22
-49 c100 -231 195 -325 347 -344 242 -31 417 90 508 349 21 61 21 260 -1 327
-46 143 -132 262 -221 307 -70 35 -185 57 -268 50z m184 -129 c63 -33 141
-114 182 -189 33 -59 33 -61 34 -196 0 -132 -1 -137 -30 -194 -59 -114 -145
-188 -256 -221 -46 -14 -62 -14 -104 -4 -73 18 -114 42 -170 97 -86 85 -125
185 -125 316 0 165 76 312 199 385 82 48 184 50 270 6z m-852 -5 c39 -15 70
-45 114 -112 60 -93 81 -169 76 -279 -2 -51 -8 -109 -14 -129 -25 -87 -93
-192 -152 -231 -30 -20 -123 -24 -168 -7 -59 22 -115 81 -152 158 -34 73 -35
80 -35 186 1 226 88 373 244 416 38 10 56 10 87 -2z"/>
<path d="M1579 6233 c-58 -64 -65 -149 -22 -233 37 -72 95 -96 170 -70 46 17
63 56 63 150 0 127 -39 180 -134 180 -44 0 -56 -4 -77 -27z"/>
<path d="M872 6233 c-21 -8 -49 -74 -55 -129 -7 -66 27 -148 66 -158 32 -8 66
5 91 33 22 24 33 115 22 175 -12 62 -71 100 -124 79z"/>
<path d="M2267 5500 c-26 -16 -51 -30 -54 -30 -4 0 -14 -6 -22 -14 -29 -26
-371 -134 -466 -147 -49 -7 -168 -14 -264 -16 -140 -3 -182 -1 -213 12 -21 8
-50 15 -63 15 -21 0 -25 -5 -25 -28 0 -39 57 -82 110 -82 18 0 70 -53 70 -71
0 -19 78 -115 141 -174 36 -34 94 -74 132 -92 58 -29 77 -33 144 -33 84 0 128
13 233 68 88 46 138 89 208 175 131 162 174 256 170 367 -3 72 -4 75 -28 78
-15 2 -45 -10 -73 -28z m-27 -156 c0 -10 -63 -119 -89 -154 -64 -86 -169 -174
-271 -225 -49 -25 -62 -27 -127 -22 -98 7 -157 40 -247 140 -39 43 -72 82 -74
88 -2 5 18 9 45 9 26 1 80 5 118 11 39 5 90 12 115 15 104 12 414 97 480 131
26 13 50 17 50 7z"/>
</g>
</svg>
