<?xml version="1.0" standalone="no"?>
<!DOCTYPE svg PUBLIC "-//W3C//DTD SVG 20010904//EN"
 "http://www.w3.org/TR/2001/REC-SVG-20010904/DTD/svg10.dtd">
<svg version="1.0" xmlns="http://www.w3.org/2000/svg"
 width="482.000000pt" height="817.000000pt" viewBox="0 0 482.000000 817.000000"
 preserveAspectRatio="xMidYMid meet">

<g transform="translate(0.000000,817.000000) scale(0.100000,-0.100000)"
fill="#000000" stroke="none">
<path d="M2170 7278 c-58 -4 -118 -12 -134 -18 -16 -5 -43 -10 -61 -10 -45 0
-215 -55 -289 -94 -35 -18 -111 -66 -170 -107 -58 -41 -121 -84 -139 -96 -43
-30 -66 -51 -107 -103 -19 -24 -47 -58 -61 -75 -53 -61 -136 -193 -182 -288
-26 -54 -47 -102 -47 -108 0 -5 -4 -17 -9 -27 -17 -34 -31 -89 -47 -190 -29
-184 -6 -441 51 -577 7 -16 23 -55 36 -85 26 -62 69 -144 110 -208 l27 -43
-99 -148 c-54 -81 -108 -157 -119 -169 -11 -11 -20 -23 -20 -26 0 -3 -52 -88
-116 -188 -165 -259 -233 -403 -214 -454 25 -64 148 -72 321 -18 26 8 51 14
57 14 6 0 50 18 97 40 47 22 88 40 89 40 2 0 50 22 107 49 57 27 156 70 219
96 63 26 136 58 162 71 26 13 49 20 52 15 5 -7 -3 -38 -24 -96 -17 -46 -68
-280 -77 -355 -2 -19 -8 -44 -13 -55 -10 -24 -15 -51 -36 -210 -41 -313 -52
-470 -62 -925 -5 -206 -12 -382 -16 -390 -7 -18 -22 -195 -37 -440 -21 -341
-12 -902 16 -1062 8 -44 7 -45 -91 -58 -174 -23 -389 -73 -454 -106 -89 -45
-105 -110 -33 -140 32 -14 46 -14 137 1 55 8 112 18 126 21 14 3 54 9 90 14
85 11 182 27 250 41 139 29 150 42 132 150 -7 38 -12 100 -12 137 0 37 -5 112
-11 167 -10 101 -14 799 -4 815 3 5 10 75 16 157 13 177 25 323 35 417 l7 69
76 -7 c42 -4 117 -11 166 -17 208 -23 322 -28 525 -23 118 2 233 9 255 14 22
5 77 10 122 10 l81 0 6 -47 c3 -27 9 -75 15 -108 13 -87 40 -322 52 -450 5
-60 13 -150 18 -200 31 -291 36 -750 11 -840 -4 -16 -11 -65 -13 -108 -5 -74
-4 -80 21 -108 23 -26 42 -33 122 -50 52 -10 105 -19 118 -19 12 0 30 -4 40
-9 15 -8 47 -13 252 -41 36 -5 84 -12 107 -16 39 -6 45 -4 73 26 57 61 33 100
-100 153 -60 24 -277 75 -413 96 -26 4 -51 12 -55 17 -4 5 -4 114 1 243 11
273 -11 833 -37 941 -3 14 -11 75 -16 135 -11 107 -15 139 -42 310 -13 91 -14
128 -3 308 11 183 -32 753 -80 1052 -2 17 -11 86 -20 155 -16 126 -18 144 -35
235 -22 120 -30 179 -25 183 4 5 181 -59 270 -98 22 -9 74 -30 115 -45 41 -15
89 -34 107 -41 17 -8 36 -14 42 -14 6 0 19 -4 29 -9 34 -19 159 -59 232 -74
161 -34 225 -40 294 -27 73 14 77 17 95 78 22 78 -2 139 -118 297 -127 175
-176 236 -313 391 l-128 147 27 36 c15 20 35 43 45 52 10 9 18 19 18 23 0 3
15 27 34 53 58 83 128 229 147 308 6 28 15 58 20 67 5 10 9 35 9 56 0 21 5 43
11 49 12 12 6 278 -8 363 -24 139 -115 352 -201 472 -31 44 -68 96 -81 116
-27 41 -26 40 -100 116 -97 100 -376 275 -521 328 -50 19 -138 41 -220 57 -57
11 -306 31 -350 29 -14 -1 -72 -6 -130 -10z m305 -133 c178 -18 288 -45 412
-101 17 -8 33 -14 36 -14 16 0 184 -102 249 -152 104 -78 276 -273 312 -353
10 -22 37 -78 59 -125 49 -103 65 -162 88 -315 18 -119 0 -354 -32 -417 -5
-10 -9 -22 -9 -28 0 -11 -49 -112 -94 -195 -37 -67 -115 -175 -126 -175 -5 0
-21 16 -36 35 l-26 35 25 42 c13 24 27 63 30 88 4 25 11 65 17 90 53 229 50
323 -13 376 -45 38 -83 33 -176 -22 -30 -18 -31 -18 -46 1 -9 11 -27 43 -41
70 -41 83 -77 128 -128 163 -58 39 -96 41 -158 8 -44 -23 -91 -25 -104 -5 -8
13 -91 11 -116 -3 -33 -20 -66 -60 -72 -89 -3 -14 -21 -38 -40 -53 -51 -38
-95 -108 -102 -159 -5 -34 -1 -53 16 -88 68 -134 279 -355 432 -453 92 -58
138 -71 260 -69 l108 1 30 -36 c16 -20 30 -42 30 -49 0 -19 -193 -166 -262
-200 -79 -39 -167 -72 -321 -122 -80 -26 -158 -34 -337 -34 -233 0 -266 6
-500 90 -141 51 -155 59 -275 144 -110 78 -245 203 -232 215 3 4 32 -3 64 -14
80 -28 133 -34 206 -22 86 13 175 51 273 116 83 54 106 73 219 174 34 30 92
82 129 115 78 69 136 143 136 174 0 27 -38 87 -79 125 -28 27 -31 36 -31 87 0
54 -2 60 -33 83 -25 19 -46 26 -80 26 -42 0 -51 4 -82 39 -19 21 -48 44 -65
51 -70 29 -210 -52 -373 -216 l-69 -68 -41 47 c-31 35 -51 49 -77 53 -50 8
-105 -17 -126 -58 -40 -74 -44 -99 -44 -308 -1 -205 -8 -250 -37 -232 -21 14
-123 239 -134 297 -12 63 -29 229 -29 280 -1 76 30 274 51 330 28 74 88 188
148 279 142 218 400 413 646 489 146 45 159 48 265 56 150 12 161 11 305 -4z
m-525 -1091 c0 -9 -48 -65 -107 -125 -115 -116 -135 -147 -113 -173 27 -34 67
-20 133 47 34 34 93 87 130 117 96 78 127 86 127 35 0 -18 -13 -33 -52 -58
-78 -50 -188 -170 -188 -205 0 -35 16 -52 50 -52 17 0 46 20 92 64 72 68 145
111 172 100 28 -11 18 -29 -57 -100 -265 -252 -474 -394 -580 -394 -52 0 -103
19 -136 49 -25 23 -31 37 -31 71 0 23 -5 50 -11 61 -17 33 -13 303 6 339 20
38 29 38 46 -2 25 -63 48 -88 82 -88 27 0 46 14 122 91 89 89 221 205 260 227
29 16 55 14 55 -4z m980 -36 c17 -18 43 -53 58 -78 14 -25 31 -52 37 -60 7 -8
32 -52 55 -97 50 -96 80 -122 113 -100 12 8 28 26 35 41 6 14 17 37 24 51 19
41 32 4 24 -74 -24 -261 -81 -361 -204 -361 -77 0 -112 18 -272 138 -90 69
-221 217 -261 297 -19 37 -20 49 -11 70 6 14 16 25 21 25 13 0 143 -145 188
-210 33 -47 44 -55 74 -58 29 -2 37 1 48 22 12 21 11 30 -5 65 -30 63 -114
180 -166 231 -38 36 -48 53 -48 78 0 18 5 32 13 33 31 3 53 -5 69 -25 41 -51
68 -94 89 -138 12 -27 25 -48 29 -48 4 0 19 -21 33 -47 40 -72 52 -83 84 -83
59 0 68 40 27 128 -15 31 -40 75 -56 97 -56 77 -78 116 -73 126 12 18 43 8 75
-23z m-1656 -920 c32 -45 160 -148 249 -199 51 -29 111 -66 133 -81 23 -15 46
-28 52 -28 5 0 15 -6 21 -14 10 -12 -1 -20 -61 -49 -132 -63 -239 -110 -323
-142 -51 -20 -196 -82 -301 -130 -155 -71 -274 -111 -274 -92 0 13 55 124 85
172 18 28 34 57 37 65 14 38 347 519 360 520 4 0 14 -10 22 -22z m2238 -204
c73 -86 142 -168 153 -183 10 -14 46 -58 80 -98 57 -68 73 -93 109 -175 24
-54 22 -59 -26 -52 -104 15 -290 62 -353 89 -58 26 -163 65 -250 94 -131 43
-370 144 -380 161 -3 4 16 16 42 26 72 27 202 92 248 124 22 15 60 39 85 53
25 14 69 46 98 71 30 25 55 46 57 46 3 0 64 -70 137 -156z m-1527 -194 c35
-28 354 -52 510 -39 61 5 123 10 140 12 29 2 30 0 43 -63 7 -36 17 -81 22
-100 16 -68 29 -157 45 -300 9 -80 20 -159 26 -176 5 -17 9 -52 9 -79 0 -26 4
-64 9 -84 27 -102 50 -420 57 -788 4 -209 4 -222 -14 -232 -28 -15 -252 -33
-472 -38 -183 -5 -280 1 -515 29 -49 6 -119 14 -155 17 l-65 6 -3 180 c-4 255
16 561 48 750 6 33 15 89 20 125 35 254 119 575 196 747 23 53 24 55 56 48 18
-4 38 -11 43 -15z"/>
<path d="M2637 6490 c-24 -34 0 -77 74 -134 65 -49 110 -73 164 -86 17 -4 65
-17 107 -29 89 -24 128 -26 178 -8 51 18 60 26 60 53 0 33 -52 64 -109 64 -25
0 -58 4 -75 10 -17 5 -58 17 -91 26 -62 18 -161 63 -205 94 -14 10 -39 21 -57
24 -25 6 -34 3 -46 -14z"/>
<path d="M1965 6480 c-16 -10 -57 -28 -90 -40 -33 -12 -69 -25 -80 -30 -49
-18 -97 -29 -200 -45 -60 -10 -116 -22 -122 -28 -20 -15 -15 -41 11 -66 23
-22 30 -23 128 -17 117 6 174 13 203 26 11 4 52 18 90 30 39 13 94 38 122 56
60 38 74 70 49 109 -20 30 -66 33 -111 5z"/>
<path d="M2155 5218 c-75 -11 -141 -41 -150 -67 -8 -26 4 -69 22 -80 10 -5 44
1 92 16 68 22 88 24 191 19 125 -6 206 -22 273 -55 60 -29 95 -28 107 5 28 74
-60 123 -285 159 -100 16 -161 17 -250 3z"/>
</g>
</svg>
