<?xml version="1.0" standalone="no"?>
<!DOCTYPE svg PUBLIC "-//W3C//DTD SVG 20010904//EN"
 "http://www.w3.org/TR/2001/REC-SVG-20010904/DTD/svg10.dtd">
<svg version="1.0" xmlns="http://www.w3.org/2000/svg"
 width="579.000000pt" height="511.000000pt" viewBox="0 0 579.000000 511.000000"
 preserveAspectRatio="xMidYMid meet">

<g transform="translate(0.000000,511.000000) scale(0.100000,-0.100000)"
fill="#000000" stroke="none">
<path d="M5075 5013 c-137 -103 -210 -172 -417 -394 -80 -86 -180 -179 -270
-251 -84 -68 -184 -160 -243 -224 -55 -60 -154 -165 -220 -234 -157 -163 -405
-439 -750 -835 -153 -176 -281 -324 -286 -329 -4 -5 -106 72 -226 171 -599
492 -1190 946 -1913 1468 -212 153 -440 320 -508 372 -67 51 -131 93 -141 93
-31 0 -63 -33 -63 -65 0 -40 14 -52 445 -358 640 -455 1045 -755 1584 -1178
265 -207 733 -589 733 -598 0 -3 -24 -33 -53 -66 -29 -33 -269 -305 -532 -605
-870 -990 -1042 -1178 -1253 -1370 -63 -57 -118 -115 -123 -129 -23 -59 41
-117 97 -87 48 25 318 299 535 543 158 178 1278 1462 1401 1608 l26 29 88 -74
c750 -627 2046 -1806 2512 -2284 78 -80 149 -146 158 -146 19 0 52 17 77 40
13 13 17 25 12 42 -11 36 -46 68 -73 68 -19 0 -76 50 -236 208 -601 591 -1459
1372 -2259 2056 -108 93 -197 172 -197 177 0 4 77 97 171 206 94 109 224 259
288 333 389 453 711 796 803 859 26 17 107 63 180 102 221 118 313 184 435
315 118 127 311 297 446 394 66 47 88 69 97 96 14 41 6 84 -21 119 -19 23 -27
25 -97 25 l-77 0 -130 -97z"/>
</g>
</svg>
