<?xml version="1.0" standalone="no"?>
<!DOCTYPE svg PUBLIC "-//W3C//DTD SVG 20010904//EN"
 "http://www.w3.org/TR/2001/REC-SVG-20010904/DTD/svg10.dtd">
<svg version="1.0" xmlns="http://www.w3.org/2000/svg"
 width="453.000000pt" height="562.000000pt" viewBox="0 0 453.000000 562.000000"
 preserveAspectRatio="xMidYMid meet">

<g transform="translate(0.000000,562.000000) scale(0.100000,-0.100000)"
fill="#000000" stroke="none">
<path d="M4337 5527 c-28 -30 -99 -94 -157 -142 -573 -480 -1114 -1242 -1676
-2365 -327 -654 -531 -1202 -638 -1715 -48 -233 -94 -544 -113 -780 l-8 -89
-110 154 c-321 448 -925 1120 -1245 1385 -110 91 -264 195 -290 195 -31 0 -70
-39 -70 -71 0 -37 21 -57 132 -122 120 -71 227 -159 413 -339 503 -487 1143
-1268 1185 -1445 14 -61 70 -140 105 -149 33 -8 63 3 81 31 14 21 13 31 -3
107 -24 115 -24 483 0 688 66 543 167 932 385 1475 160 397 411 904 695 1400
429 750 876 1304 1316 1634 64 47 122 98 131 113 13 25 13 29 -6 55 -35 47
-67 43 -127 -20z"/>
</g>
</svg>
