<?xml version="1.0" standalone="no"?>
<!DOCTYPE svg PUBLIC "-//W3C//DTD SVG 1.1//EN" "http://www.w3.org/Graphics/SVG/1.1/DTD/svg11.dtd">
<svg version="1.1" xmlns="http://www.w3.org/2000/svg" viewBox="0 0 244 241" width="244" height="241"><!-- svg-source:excalidraw --><metadata></metadata><defs><style class="style-fonts">
      </style></defs><g transform="translate(234 10) rotate(0 -112 110.5)" stroke="none"><path fill="#2f9e44" d="M 5.70,3.42 Q 5.70,3.42 1.25,10.53 -3.19,17.64 -10.58,26.44 -17.97,35.25 -27.54,44.75 -37.11,54.25 -49.51,65.99 -61.91,77.73 -73.21,88.43 -84.51,99.14 -95.42,108.90 -106.33,118.66 -113.71,126.12 -121.09,133.57 -126.07,139.79 -131.05,146.01 -134.25,151.76 -137.45,157.50 -140.44,163.64 -143.42,169.78 -145.29,175.58 -147.15,181.39 -148.66,186.83 -150.18,192.28 -151.33,198.58 -152.49,204.87 -152.98,211.05 -153.47,217.24 -157.40,223.18 -161.32,229.13 -169.18,226.59 -177.04,224.05 -179.64,220.12 -182.23,216.20 -185.39,209.59 -188.55,202.98 -192.17,194.94 -195.80,186.91 -200.58,177.36 -205.36,167.81 -209.60,158.97 -213.84,150.12 -217.19,143.20 -220.54,136.28 -223.14,130.68 -225.74,125.08 -228.96,119.36 -232.19,113.64 -232.55,112.24 -232.92,110.84 -232.82,109.39 -232.72,107.94 -232.17,106.60 -231.61,105.26 -230.66,104.17 -229.70,103.08 -228.45,102.35 -227.19,101.62 -225.77,101.33 -224.35,101.04 -222.91,101.21 -221.47,101.39 -220.16,102.02 -218.86,102.65 -217.82,103.66 -216.78,104.67 -216.12,105.96 -215.46,107.25 -215.24,108.69 -215.03,110.12 -215.29,111.55 -215.54,112.98 -216.24,114.25 -216.94,115.52 -218.00,116.51 -219.07,117.49 -220.40,118.08 -221.72,118.67 -223.17,118.80 -224.61,118.94 -226.02,118.61 -227.43,118.28 -228.67,117.51 -229.90,116.74 -230.82,115.62 -231.74,114.51 -232.26,113.15 -232.78,111.80 -232.84,110.35 -232.89,108.90 -232.49,107.50 -232.08,106.11 -231.25,104.92 -230.41,103.73 -229.25,102.87 -228.08,102.01 -226.70,101.57 -225.32,101.13 -223.87,101.15 -222.42,101.17 -221.05,101.65 -219.68,102.14 -218.54,103.03 -217.40,103.92 -216.60,105.14 -215.80,106.35 -215.80,106.35 -215.80,106.35 -213.64,112.73 -211.48,119.11 -209.49,124.47 -207.50,129.83 -204.12,136.51 -200.75,143.20 -195.92,151.49 -191.09,159.78 -185.35,168.91 -179.61,178.04 -174.73,185.53 -169.85,193.02 -166.52,198.59 -163.19,204.16 -165.45,207.94 -167.71,211.73 -170.84,214.68 -173.96,217.63 -172.92,213.31 -171.88,209.00 -170.60,204.42 -169.32,199.85 -166.87,193.69 -164.43,187.54 -162.31,182.06 -160.18,176.57 -157.53,170.17 -154.89,163.78 -151.33,157.44 -147.77,151.11 -143.68,145.10 -139.59,139.09 -134.20,132.53 -128.80,125.98 -121.23,118.25 -113.66,110.53 -102.92,100.81 -92.18,91.10 -80.96,80.32 -69.74,69.53 -57.56,57.79 -45.38,46.04 -36.34,36.80 -27.30,27.56 -20.67,19.33 -14.05,11.10 -9.88,3.83 -5.70,-3.42 -5.21,-4.05 -4.72,-4.69 -4.09,-5.18 -3.46,-5.68 -2.73,-6.01 -2.00,-6.35 -1.21,-6.49 -0.42,-6.64 0.37,-6.59 1.17,-6.55 1.94,-6.31 2.71,-6.08 3.40,-5.66 4.08,-5.25 4.65,-4.68 5.22,-4.12 5.64,-3.43 6.06,-2.75 6.30,-1.98 6.54,-1.22 6.59,-0.42 6.64,0.38 6.50,1.17 6.36,1.96 6.03,2.69 5.70,3.42 5.70,3.42 L 5.70,3.42 Z"></path></g></svg>